<svg xmlns="http://www.w3.org/2000/svg" viewBox="0 0 1160 590" font-family="Inter,Segoe UI,system-ui,-apple-system,sans-serif">
  <defs>
    <filter id="ds"><feDropShadow dx="0" dy="1.5" stdDeviation="2.5" flood-color="#94a3b8" flood-opacity="0.18"/></filter>
    <marker id="arr" viewBox="0 0 10 7" refX="9" refY="3.5" markerWidth="8" markerHeight="6" orient="auto-start-reverse">
      <path d="M0 .5L8.5 3.5L0 6.5z" fill="#94a3b8"/>
    </marker>
    <marker id="arrD" viewBox="0 0 7 10" refX="3.5" refY="9" markerWidth="6" markerHeight="8" orient="auto-start-reverse">
      <path d="M.5 0L3.5 8.5L6.5 0z" fill="#94a3b8"/>
    </marker>
  </defs>
  <rect width="1160" height="590" rx="12" fill="#fff"/>
  <text x="580" y="36" text-anchor="middle" fill="#1e293b" font-size="16" font-weight="700" letter-spacing="1.5">MEMORIX ARCHITECTURE</text>
  <rect x="518" y="42" width="124" height="2.5" rx="1.2" fill="#818cf8" opacity="0.5"/>

  <!-- ═══ COLUMN 1: INGRESS (Indigo) ═══ -->
  <g transform="translate(16,62)">
    <rect width="174" height="28" rx="7" fill="#eef2ff" stroke="#c7d2fe" stroke-width="1"/>
    <text x="87" y="19" text-anchor="middle" fill="#4338ca" font-size="11" font-weight="700" letter-spacing="1.5">INGRESS</text>
    <g transform="translate(0,40)">
      <rect width="174" height="52" rx="10" fill="#eef2ff" stroke="#c7d2fe" stroke-width="1" filter="url(#ds)"/>
      <g transform="translate(12,14)"><rect width="24" height="24" rx="6" fill="#c7d2fe"/><path d="M6 8h12M6 12h12M6 16h8" stroke="#4338ca" stroke-width="1.4" stroke-linecap="round" fill="none"/></g>
      <text x="46" y="24" fill="#1e293b" font-size="11.5" font-weight="600">Git Hooks</text>
      <text x="46" y="40" fill="#64748b" font-size="9.5">post-commit / ingest</text>
    </g>
    <g transform="translate(0,102)">
      <rect width="174" height="52" rx="10" fill="#eef2ff" stroke="#c7d2fe" stroke-width="1" filter="url(#ds)"/>
      <g transform="translate(12,14)"><rect width="24" height="24" rx="6" fill="#c7d2fe"/><path d="M12 6v12M6 12h12" stroke="#4338ca" stroke-width="1.4" stroke-linecap="round" fill="none"/></g>
      <text x="46" y="24" fill="#1e293b" font-size="11.5" font-weight="600">MCP Tools</text>
      <text x="46" y="40" fill="#64748b" font-size="9.5">30+ registered tools</text>
    </g>
    <g transform="translate(0,164)">
      <rect width="174" height="52" rx="10" fill="#eef2ff" stroke="#c7d2fe" stroke-width="1" filter="url(#ds)"/>
      <g transform="translate(12,14)"><rect width="24" height="24" rx="6" fill="#c7d2fe"/><path d="M7 8l5 4-5 4M14 16h4" stroke="#4338ca" stroke-width="1.4" stroke-linecap="round" stroke-linejoin="round" fill="none"/></g>
      <text x="46" y="24" fill="#1e293b" font-size="11.5" font-weight="600">CLI / TUI</text>
      <text x="46" y="40" fill="#64748b" font-size="9.5">Operator commands</text>
    </g>
    <g transform="translate(0,226)">
      <rect width="174" height="52" rx="10" fill="#eef2ff" stroke="#c7d2fe" stroke-width="1" filter="url(#ds)"/>
      <g transform="translate(12,14)"><rect width="24" height="24" rx="6" fill="#c7d2fe"/><rect x="5" y="5" width="14" height="10" rx="2" stroke="#4338ca" stroke-width="1.4" fill="none"/><path d="M9 19h6" stroke="#4338ca" stroke-width="1.4" stroke-linecap="round" fill="none"/></g>
      <text x="46" y="24" fill="#1e293b" font-size="11.5" font-weight="600">HTTP Dashboard</text>
      <text x="46" y="40" fill="#64748b" font-size="9.5">Web UI :3211</text>
    </g>
  </g>

  <!-- ═══ COLUMN 2: RUNTIME (Purple) ═══ -->
  <g transform="translate(252,62)">
    <rect width="174" height="28" rx="7" fill="#f5f3ff" stroke="#ddd6fe" stroke-width="1"/>
    <text x="87" y="19" text-anchor="middle" fill="#6d28d9" font-size="11" font-weight="700" letter-spacing="1.5">RUNTIME</text>
    <g transform="translate(0,40)">
      <rect width="174" height="52" rx="10" fill="#f5f3ff" stroke="#ddd6fe" stroke-width="1" filter="url(#ds)"/>
      <g transform="translate(12,14)"><rect width="24" height="24" rx="6" fill="#ddd6fe"/><path d="M8 8v8M16 8v8M8 12h8" stroke="#6d28d9" stroke-width="1.4" stroke-linecap="round" fill="none"/></g>
      <text x="46" y="24" fill="#1e293b" font-size="11.5" font-weight="600">stdio MCP Server</text>
      <text x="46" y="40" fill="#64748b" font-size="9.5">memorix serve</text>
    </g>
    <g transform="translate(0,102)">
      <rect width="174" height="52" rx="10" fill="#f5f3ff" stroke="#ddd6fe" stroke-width="1" filter="url(#ds)"/>
      <g transform="translate(12,14)"><rect width="24" height="24" rx="6" fill="#ddd6fe"/><circle cx="12" cy="12" r="6" stroke="#6d28d9" stroke-width="1.4" fill="none"/><circle cx="12" cy="12" r="2" fill="#6d28d9"/></g>
      <text x="46" y="24" fill="#1e293b" font-size="11.5" font-weight="600">HTTP Control Plane</text>
      <text x="46" y="40" fill="#64748b" font-size="9.5">serve-http / background</text>
    </g>
    <g transform="translate(0,164)">
      <rect width="174" height="52" rx="10" fill="#f5f3ff" stroke="#ddd6fe" stroke-width="1" filter="url(#ds)"/>
      <g transform="translate(12,14)"><rect width="24" height="24" rx="6" fill="#ddd6fe"/><path d="M7 7h10v10H7z" stroke="#6d28d9" stroke-width="1.4" fill="none"/><path d="M10 7v-2h4v2" stroke="#6d28d9" stroke-width="1.2" fill="none"/></g>
      <text x="46" y="24" fill="#1e293b" font-size="11.5" font-weight="600">Project Binding</text>
      <text x="46" y="40" fill="#64748b" font-size="9.5">Git root + config</text>
    </g>
    <g transform="translate(8,240)">
      <rect width="158" height="28" rx="14" fill="#f5f3ff" stroke="#c4b5fd" stroke-width="1" stroke-dasharray="5 3"/>
      <text x="79" y="19" text-anchor="middle" fill="#7c3aed" font-size="10" font-weight="500">memorix orchestrate</text>
    </g>
  </g>

  <!-- ═══ COLUMN 3: MEMORY (Cyan) ═══ -->
  <g transform="translate(490,62)">
    <rect width="174" height="28" rx="7" fill="#ecfeff" stroke="#a5f3fc" stroke-width="1"/>
    <text x="87" y="19" text-anchor="middle" fill="#0e7490" font-size="11" font-weight="700" letter-spacing="1.5">MEMORY</text>
    <g transform="translate(0,40)">
      <rect width="174" height="52" rx="10" fill="#ecfeff" stroke="#a5f3fc" stroke-width="1" filter="url(#ds)"/>
      <g transform="translate(12,14)"><rect width="24" height="24" rx="6" fill="#a5f3fc"/><circle cx="12" cy="12" r="4" stroke="#0e7490" stroke-width="1.4" fill="none"/><circle cx="12" cy="12" r="1.5" fill="#0e7490"/></g>
      <text x="46" y="24" fill="#1e293b" font-size="11.5" font-weight="600">Observation</text>
      <text x="46" y="40" fill="#64748b" font-size="9.5">what / how / gotchas</text>
    </g>
    <g transform="translate(0,102)">
      <rect width="174" height="52" rx="10" fill="#ecfeff" stroke="#a5f3fc" stroke-width="1" filter="url(#ds)"/>
      <g transform="translate(12,14)"><rect width="24" height="24" rx="6" fill="#a5f3fc"/><path d="M8 17l4-10 4 10M9.5 14h5" stroke="#0e7490" stroke-width="1.4" stroke-linecap="round" stroke-linejoin="round" fill="none"/></g>
      <text x="46" y="24" fill="#1e293b" font-size="11.5" font-weight="600">Reasoning</text>
      <text x="46" y="40" fill="#64748b" font-size="9.5">why / trade-offs / risks</text>
    </g>
    <g transform="translate(0,164)">
      <rect width="174" height="52" rx="10" fill="#ecfeff" stroke="#a5f3fc" stroke-width="1" filter="url(#ds)"/>
      <g transform="translate(12,14)"><rect width="24" height="24" rx="6" fill="#a5f3fc"/><circle cx="9" cy="9" r="3" stroke="#0e7490" stroke-width="1.4" fill="none"/><circle cx="15" cy="15" r="3" stroke="#0e7490" stroke-width="1.4" fill="none"/><path d="M11.5 10.5l1 1" stroke="#0e7490" stroke-width="1" fill="none"/></g>
      <text x="46" y="24" fill="#1e293b" font-size="11.5" font-weight="600">Git Memory</text>
      <text x="46" y="40" fill="#64748b" font-size="9.5">immutable commit facts</text>
    </g>
    <g transform="translate(0,226)">
      <rect width="174" height="52" rx="10" fill="#ecfeff" stroke="#a5f3fc" stroke-width="1" filter="url(#ds)"/>
      <g transform="translate(12,14)"><rect width="24" height="24" rx="6" fill="#a5f3fc"/><circle cx="10" cy="10" r="3" stroke="#0e7490" stroke-width="1.4" fill="none"/><circle cx="16" cy="10" r="3" stroke="#0e7490" stroke-width="1.4" fill="none"/><path d="M7 18c0-2 2.5-3 5.5-3s5.5 1 5.5 3" stroke="#0e7490" stroke-width="1.2" fill="none" stroke-linecap="round"/></g>
      <text x="46" y="24" fill="#1e293b" font-size="11.5" font-weight="600">Session + Team</text>
      <text x="46" y="40" fill="#64748b" font-size="9.5">agents / tasks / locks</text>
    </g>
    <g transform="translate(18,294)">
      <rect width="138" height="22" rx="11" fill="#ecfeff" stroke="#67e8f9" stroke-width="1"/>
      <text x="69" y="15" text-anchor="middle" fill="#0e7490" font-size="9" font-weight="500">SQLite · Orama · Local</text>
    </g>
  </g>

  <!-- ═══ COLUMN 4: PROCESSING (Amber) ═══ -->
  <g transform="translate(728,62)">
    <rect width="174" height="28" rx="7" fill="#fffbeb" stroke="#fde68a" stroke-width="1"/>
    <text x="87" y="19" text-anchor="middle" fill="#92400e" font-size="11" font-weight="700" letter-spacing="1.5">PROCESSING</text>
    <g transform="translate(0,40)">
      <rect width="174" height="52" rx="10" fill="#fffbeb" stroke="#fde68a" stroke-width="1" filter="url(#ds)"/>
      <g transform="translate(12,14)"><rect width="24" height="24" rx="6" fill="#fde68a"/><path d="M12 6v4M12 14v4M8 10l4 4 4-4" stroke="#92400e" stroke-width="1.4" stroke-linecap="round" stroke-linejoin="round" fill="none"/></g>
      <text x="46" y="24" fill="#1e293b" font-size="11.5" font-weight="600">Formation Pipeline</text>
      <text x="46" y="40" fill="#64748b" font-size="9.5">LLM-assisted quality</text>
    </g>
    <g transform="translate(0,102)">
      <rect width="174" height="52" rx="10" fill="#fffbeb" stroke="#fde68a" stroke-width="1" filter="url(#ds)"/>
      <g transform="translate(12,14)"><rect width="24" height="24" rx="6" fill="#fde68a"/><circle cx="12" cy="12" r="7" stroke="#92400e" stroke-width="1" fill="none" opacity="0.4"/><path d="M6 12h12M12 6v12" stroke="#92400e" stroke-width="1.4" stroke-linecap="round" fill="none"/></g>
      <text x="46" y="24" fill="#1e293b" font-size="11.5" font-weight="600">Embedding + Index</text>
      <text x="46" y="40" fill="#64748b" font-size="9.5">hybrid search + rerank</text>
    </g>
    <g transform="translate(0,164)">
      <rect width="174" height="52" rx="10" fill="#fffbeb" stroke="#fde68a" stroke-width="1" filter="url(#ds)"/>
      <g transform="translate(12,14)"><rect width="24" height="24" rx="6" fill="#fde68a"/><circle cx="8" cy="8" r="2.5" fill="#d97706" opacity="0.5"/><circle cx="16" cy="8" r="2.5" fill="#d97706" opacity="0.5"/><circle cx="12" cy="16" r="2.5" fill="#d97706" opacity="0.5"/><path d="M8 8h8M8 8l4 8M16 8l-4 8" stroke="#92400e" stroke-width=".8" fill="none" opacity="0.5"/></g>
      <text x="46" y="24" fill="#1e293b" font-size="11.5" font-weight="600">Graph Linking</text>
      <text x="46" y="40" fill="#64748b" font-size="9.5">entity + relation edges</text>
    </g>
    <g transform="translate(0,226)">
      <rect width="174" height="52" rx="10" fill="#fffbeb" stroke="#fde68a" stroke-width="1" filter="url(#ds)"/>
      <g transform="translate(12,14)"><rect width="24" height="24" rx="6" fill="#fde68a"/><path d="M8 8h8v8H8z" stroke="#92400e" stroke-width="1.4" fill="none"/><path d="M12 8v8M8 12h8" stroke="#92400e" stroke-width=".8" opacity="0.5" fill="none"/></g>
      <text x="46" y="24" fill="#1e293b" font-size="11.5" font-weight="600">Dedup + Retention</text>
      <text x="46" y="40" fill="#64748b" font-size="9.5">decay + consolidate</text>
    </g>
  </g>

  <!-- ═══ COLUMN 5: CONSUMPTION (Emerald) ═══ -->
  <g transform="translate(966,62)">
    <rect width="174" height="28" rx="7" fill="#ecfdf5" stroke="#a7f3d0" stroke-width="1"/>
    <text x="87" y="19" text-anchor="middle" fill="#065f46" font-size="11" font-weight="700" letter-spacing="1.5">CONSUMPTION</text>
    <g transform="translate(0,40)">
      <rect width="174" height="52" rx="10" fill="#ecfdf5" stroke="#a7f3d0" stroke-width="1" filter="url(#ds)"/>
      <g transform="translate(12,14)"><rect width="24" height="24" rx="6" fill="#a7f3d0"/><circle cx="11" cy="11" r="5" stroke="#065f46" stroke-width="1.4" fill="none"/><path d="M15 15l4 4" stroke="#065f46" stroke-width="1.4" stroke-linecap="round" fill="none"/></g>
      <text x="46" y="24" fill="#1e293b" font-size="11.5" font-weight="600">Search / Timeline</text>
      <text x="46" y="40" fill="#64748b" font-size="9.5">detail + source-aware</text>
    </g>
    <g transform="translate(0,102)">
      <rect width="174" height="52" rx="10" fill="#ecfdf5" stroke="#a7f3d0" stroke-width="1" filter="url(#ds)"/>
      <g transform="translate(12,14)"><rect width="24" height="24" rx="6" fill="#a7f3d0"/><rect x="5" y="5" width="6" height="6" rx="1.5" stroke="#065f46" stroke-width="1.2" fill="none"/><rect x="13" y="5" width="6" height="6" rx="1.5" stroke="#065f46" stroke-width="1.2" fill="none"/><rect x="5" y="13" width="14" height="6" rx="1.5" stroke="#065f46" stroke-width="1.2" fill="none"/></g>
      <text x="46" y="24" fill="#1e293b" font-size="11.5" font-weight="600">Dashboard / Team</text>
      <text x="46" y="40" fill="#64748b" font-size="9.5">roster + task board</text>
    </g>
    <g transform="translate(0,164)">
      <rect width="174" height="52" rx="10" fill="#ecfdf5" stroke="#a7f3d0" stroke-width="1" filter="url(#ds)"/>
      <g transform="translate(12,14)"><rect width="24" height="24" rx="6" fill="#a7f3d0"/><path d="M17 7a6 6 0 11-1.5 3" stroke="#065f46" stroke-width="1.4" stroke-linecap="round" fill="none"/><path d="M17 3v4h-4" stroke="#065f46" stroke-width="1.4" stroke-linecap="round" stroke-linejoin="round" fill="none"/></g>
      <text x="46" y="24" fill="#1e293b" font-size="11.5" font-weight="600">Agent Recall</text>
      <text x="46" y="40" fill="#64748b" font-size="9.5">handoff + watermark</text>
    </g>
    <g transform="translate(0,226)">
      <rect width="174" height="52" rx="10" fill="#ecfdf5" stroke="#a7f3d0" stroke-width="1" filter="url(#ds)"/>
      <g transform="translate(12,14)"><rect width="24" height="24" rx="6" fill="#a7f3d0"/><path d="M8 8h3v3H8zM13 8h3v3h-3zM8 13h3v3H8zM13 13h3v3h-3z" stroke="#065f46" stroke-width="1" fill="none"/></g>
      <text x="46" y="24" fill="#1e293b" font-size="11.5" font-weight="600">Skills / Sync</text>
      <text x="46" y="40" fill="#64748b" font-size="9.5">SKILL.md + workspace</text>
    </g>
  </g>

  <!-- ═══════════════════════════════════════════════ -->
  <!-- CONNECTIONS — accurate many-to-many data flow  -->
  <!-- Card Y centers: row1=128, row2=190, row3=252, row4=314 -->
  <!-- ═══════════════════════════════════════════════ -->

  <!-- === Ingress → Runtime (fan-in to servers) === -->
  <g stroke="#a5b4fc" stroke-width="1.2" fill="none" opacity="0.55" marker-end="url(#arr)">
    <!-- Git Hooks → stdio (straight) -->
    <path d="M190,128 L252,128"/>
    <!-- MCP Tools → stdio (curve up) -->
    <path d="M190,190 C212,190 230,128 252,128"/>
    <!-- MCP Tools → HTTP (straight) -->
    <path d="M190,190 L252,190"/>
    <!-- CLI → stdio (curve up) -->
    <path d="M190,252 C216,252 228,128 252,128"/>
    <!-- CLI → HTTP (curve up) -->
    <path d="M190,252 C212,252 230,190 252,190"/>
    <!-- Dashboard → HTTP (curve up) -->
    <path d="M190,314 C212,314 230,190 252,190"/>
  </g>

  <!-- === Runtime internal: servers → binding (convergence) === -->
  <g stroke="#c4b5fd" stroke-width="1.2" fill="none" opacity="0.55">
    <!-- stdio → binding -->
    <path d="M339,154 L339,226" marker-end="url(#arr)"/>
    <!-- HTTP → binding -->
    <path d="M339,216 L339,226" marker-end="url(#arr)"/>
  </g>

  <!-- === Binding → Memory (fan-out from one hub) === -->
  <g stroke="#c4b5fd" stroke-width="1.2" fill="none" opacity="0.55" marker-end="url(#arr)">
    <!-- Binding → Observation (curve up) -->
    <path d="M426,252 C450,252 466,128 490,128"/>
    <!-- Binding → Reasoning (curve up slightly) -->
    <path d="M426,252 C450,252 466,190 490,190"/>
    <!-- Binding → Git Memory (straight) -->
    <path d="M426,252 L490,252"/>
    <!-- Binding → Session+Team (curve down) -->
    <path d="M426,252 C450,252 466,314 490,314"/>
  </g>

  <!-- === Memory → Processing (many-to-many) === -->
  <g stroke="#67e8f9" stroke-width="1" fill="none" opacity="0.4" marker-end="url(#arr)">
    <!-- Observation → Formation (straight) -->
    <path d="M664,128 L728,128" opacity="0.6" stroke-width="1.2"/>
    <!-- Observation → Embedding (down) -->
    <path d="M664,128 C686,128 706,190 728,190"/>
    <!-- Observation → Graph (down) -->
    <path d="M664,128 C686,128 706,252 728,252"/>
    <!-- Observation → Dedup (down far) -->
    <path d="M664,128 C690,128 706,314 728,314"/>
    <!-- Reasoning → Formation (up) -->
    <path d="M664,190 C686,190 706,128 728,128"/>
    <!-- Reasoning → Graph (down) -->
    <path d="M664,190 C686,190 706,252 728,252"/>
    <!-- Git Memory → Embedding (up) -->
    <path d="M664,252 C686,252 706,190 728,190" opacity="0.6" stroke-width="1.2"/>
    <!-- Session+Team → Graph (up) -->
    <path d="M664,314 C686,314 706,252 728,252"/>
  </g>

  <!-- === Processing → Consumption === -->
  <g stroke="#86efac" stroke-width="1.2" fill="none" opacity="0.5" marker-end="url(#arr)">
    <!-- Formation → Search (straight) -->
    <path d="M902,128 L966,128"/>
    <!-- Embedding → Search (up) -->
    <path d="M902,190 C924,190 944,128 966,128"/>
    <!-- Graph → Dashboard (up) -->
    <path d="M902,252 C924,252 944,190 966,190"/>
    <!-- Dedup → Recall (up) -->
    <path d="M902,314 C924,314 944,252 966,252"/>
  </g>

  <!-- === Session+Team → Recall BYPASS (dashed, routes below) === -->
  <path d="M664,330 C664,385 966,385 966,268" stroke="#0e7490" stroke-width="1.2" fill="none" opacity="0.35" stroke-dasharray="5 3" marker-end="url(#arr)"/>
  <text x="815" y="396" text-anchor="middle" fill="#0e7490" font-size="8" opacity="0.5" font-style="italic">session → recall (direct)</text>

  <!-- ═══ SUPPORTED CLIENTS ═══ -->
  <g transform="translate(30,490)">
    <rect width="1100" height="70" rx="10" fill="#f8fafc" stroke="#e2e8f0" stroke-width="1" filter="url(#ds)"/>
    <text x="24" y="22" fill="#4338ca" font-size="10" font-weight="700" letter-spacing="1.5">SUPPORTED CLIENTS</text>
    <g transform="translate(24,32)">
      <rect width="58" height="20" rx="10" fill="#eef2ff" stroke="#c7d2fe" stroke-width="1"/>
      <text x="29" y="14" text-anchor="middle" fill="#4338ca" font-size="8.5" font-weight="600">CORE</text>
    </g>
    <text x="92" y="46" fill="#475569" font-size="10">Claude Code · Cursor · Windsurf</text>
    <g transform="translate(310,32)">
      <rect width="78" height="20" rx="10" fill="#f5f3ff" stroke="#ddd6fe" stroke-width="1"/>
      <text x="39" y="14" text-anchor="middle" fill="#6d28d9" font-size="8.5" font-weight="600">EXTENDED</text>
    </g>
    <text x="398" y="46" fill="#475569" font-size="10">Copilot · Kiro · Codex</text>
    <g transform="translate(580,32)">
      <rect width="94" height="20" rx="10" fill="#ecfeff" stroke="#a5f3fc" stroke-width="1"/>
      <text x="47" y="14" text-anchor="middle" fill="#0e7490" font-size="8.5" font-weight="600">COMMUNITY</text>
    </g>
    <text x="684" y="46" fill="#475569" font-size="10">Gemini CLI · OpenCode · Antigravity · Trae</text>
  </g>
</svg>
